# xmcd CD database file
#
# Track frame offsets:
#	150
#	34763
#	48490
#	90465
#	106413
#	134450
#	148565
#	180323
#	210848
#	228243
#	246533
#	272800
#	301308
#
# Disc length: 4240 seconds
#
# Revision: 1
# Processed by: cddbd v1.5.1PL0 Copyright (c) Steve Scherf et al.
# Submitted via: CDex 1.51
#
DISCID=ae108e0d
DTITLE=Michel Petrucciani - So What (Best Of)
DYEAR=2004
DGENRE=Jazz
TTITLE0=Summertime
TTITLE1=Little Peace In C For U
TTITLE2=Home
TTITLE3=J'aurais Tellement Voulu
TTITLE4=Chloe Meets Gershwin
TTITLE5=Brazilian Like
TTITLE6=So What
TTITLE7=Les Grelots
TTITLE8=Looking Up
TTITLE9=Besame Mucho
TTITLE10=Why
TTITLE11=Michel's Blues
TTITLE12=Pennys From Heaven
EXTD=YEAR: 2004
EXTT0=
EXTT1=
EXTT2=
EXTT3=
EXTT4=
EXTT5=
EXTT6=
EXTT7=
EXTT8=
EXTT9=
EXTT10=
EXTT11=
EXTT12=
PLAYORDER=
